<?xml version="1.0" standalone="no"?>
<svg xmlns="http://www.w3.org/2000/svg" viewBox="0 0 155 70" width="155" height="70"><g fill="#8b50b2" color="#8b50b2" transform="translate(55.157 0) scale(0.9166667) "><svg width="48.0" height="48.0" x="0.0" y="0.0" viewBox="0 0 48 48"><path fill="currentColor" fill-rule="evenodd" d="M21.088 35.003c-.108 0-.27 0-.432-.054-1.294-.27-1.294-1.403-1.348-2.212-.054-.862-.108-1.186-.54-1.887-.215-.324.054-.647.378-.647.054 0 .108 0 .216.054 1.402.7 3.344 1.887 3.29 3.182 0 .054-.216 1.564-1.564 1.564m-2.643-14.994c-.054.162-.162.27-.378.378a1.787 1.787 0 0 1-1.294 0c-.593-.27-1.133-.701-1.564-1.079-.701-.593-1.348-1.132-2.157-.97-.54.053-.971.377-1.349.97-.161.27-.27.594-.161.917.215.755 1.024 1.187 2.319 1.888 2.21 1.186 4.045 2.265 4.045 3.883v.431c0 .108-.054.162-.054.27 0 .054-.054.108-.054.162 0 .054-.054.108-.054.162-.054.107-.108.161-.216.27l-.162.161c-.431.324-1.024.485-1.564.485-.755 0-1.726-.323-1.887-1.294-.27-1.402-2.535-3.074-4.53-3.236-.972-.108-1.834.162-2.428.755l-.215.27c-.054.054-.108.162-.162.216-.054.107-.108.161-.162.27 0 .053-.054.053-.054.107-.054.054-.054.108-.108.216-.054 0-.054.054-.054.108-.054.054-.054.162-.054.215-.27 1.187 1.24 2.104 3.236 3.344 3.29 1.996 5.879 3.83 4.908 6.095-.216.485-.647.97-1.186 1.294a3.536 3.536 0 0 1-1.78.485c-1.24 0-2.265-.755-2.859-2.103-.593-1.348-1.294-2.05-2.103-2.05-.593 0-1.133.324-1.51.971-.162.378-.324.81-.324 1.295-1.833-3.236-2.912-7.011-2.912-10.949C1.618 11.596 11.649 1.564 24 1.564c1.672 0 3.344.162 4.962.54.593.162.809.54.917.863.161.539 0 1.186-.432 1.564-.377.377-.97.431-1.672.215-1.456-.431-2.912-.215-3.775.648-.593.593-.809 1.402-.54 2.157.216.647.918 1.726 3.29 2.157 1.834.324 3.183.216 4.854.108a54.109 54.109 0 0 1 3.29-.108c3.128 0 4.854 1.564 5.394 2.859.377.917.27 1.78-.324 2.373-1.186 1.186-4.207-.216-5.609-1.025-.162-.108-.27-.162-.431-.27-.378-.215-.863-.108-1.08.27-.215.378-.107.863.217 1.079.054.054.215.161.431.27 1.834 1.186 2.859 2.804 2.859 4.476 0 1.402-.755 2.642-2.05 3.451-1.025.594-1.941.648-2.643.054-.7-.593-.97-1.672-.593-2.696.378-1.133.216-2.212-.485-3.02-1.133-1.295-3.506-1.78-6.04-1.295-.162.054-.324.054-.432.108-.917.27-2.697.97-4.045 2.157-.485-1.618-2.157-2.642-3.506-3.397-.809-.486-1.887-1.133-1.887-1.51 0-.486.593-1.241 1.24-1.403.593-.162 1.133.216 1.618 1.025.755 1.348 2.157 2.265 3.398 2.157 1.025-.054 1.887-.647 2.373-1.726.377-.809.377-1.833.054-2.696-.27-.701-.917-1.618-2.427-2.212a.797.797 0 0 0-1.025.432.797.797 0 0 0 .432 1.025c.809.323 1.294.755 1.51 1.294.215.54.108 1.079 0 1.402-.216.54-.54.81-.971.81-.647.053-1.51-.54-1.942-1.349-1.186-2.103-2.804-1.942-3.397-1.78-1.349.324-2.481 1.672-2.481 2.966 0 1.295 1.294 2.05 2.642 2.859 1.996 1.186 3.236 2.05 2.75 3.613M23.947 0c1.834 0 3.614.216 5.34.594 1.078.215 1.833.97 2.103 1.995.27 1.079-.054 2.32-.863 3.128-.486.432-1.564 1.133-3.29.594-1.079-.324-1.834-.054-2.157.27-.108.107-.216.323-.162.539.108.377.701.862 2.05 1.078 1.671.27 2.912.216 4.476.108.97-.054 2.05-.108 3.397-.108 3.938 0 6.149 2.05 6.904 3.83.647 1.51.377 3.074-.647 4.098-1.025 1.025-2.481 1.079-3.884.755.54.917.81 1.888.81 2.913 0 1.995-1.025 3.775-2.859 4.854-1.564.97-3.236.97-4.476-.054-1.24-1.025-1.672-2.859-1.079-4.477.216-.593.108-1.078-.216-1.456-.72-.824-2.424-1.107-4.22-.802l-.256.047h-.054c-.054.054-.162.054-.216.108-1.186.54-2.48 3.236-2.373 6.256 0 1.672.432 5.77 4.369 7.227 1.78.701 3.505 1.025 5.123 1.025 2.75 0 5.07-.971 7.12-2.427 1.132-.755 2.21-1.726 3.235-2.697 2.178-2.333 3.708-4.966 4.014-6.891l.031-.228v-.054c0-.054.054-.108.054-.162 0 0 .03-.03.046-.068l.008-.04.108-.107.023-.023.085-.085s.054-.054.108-.054c.036 0 .072-.024.108-.04l.054-.014h.323c.054 0 .108.054.162.054 0 0 .03.03.068.045l.04.009.216.215s.053.054.053.108c0 .036.024.072.04.108l.014.054v.054c.216 1.348.324 2.157.324 3.667 0 12.868-10.202 23.41-23.07 23.881l-.39.012h-1.834c-1.618-.054-3.236-.27-4.746-.702-.122 0-.243-.03-.364-.068l-.122-.04h-.054c-.054 0-.108-.053-.162-.053C7.281 44.063 0 34.84 0 23.946 0 10.733 10.787-.054 23.946 0zm16.611 18.23c.378 0 .701.108 1.079.323 1.618 1.079 2.373 2.265 2.157 3.506 0 .108-.054.162-.054.216-.323.917-1.132 1.833-2.373 1.833-.27 0-.593-.054-.863-.161a2.387 2.387 0 0 1-1.51-1.618 3.42 3.42 0 0 1-.073-1.096l.02-.145v-.216c-.055 0-.055 0-.055-.054-.27-.539-.215-1.186.108-1.725.378-.54.917-.863 1.564-.863zm0 1.672c-.161 0-.27.161-.215.323.215.378.215.54.16 1.025-.053.431-.106 1.025.54 1.24a.687.687 0 0 0 .324.054c.594 0 .81-.7.81-.647.107-.701-.864-1.456-1.51-1.941 0-.054-.055-.054-.109-.054zM35.542 2.319c.754.108 3.073.378 3.667 2.104 0 .054.054.162.054.215.054.216.161 1.133-.432 1.942-.377.54-1.025.863-1.726.97h-.323c-.7 0-1.348-.269-1.834-.808-.323-.324-.485-.701-.593-.97v-.055c0-.054-.054-.108-.054-.108l-.054-.054c-.593-.431-.862-1.24-.647-1.995.216-.755.917-1.24 1.726-1.24zm-.162 1.564c-.216 0-.324.27-.216.378.378.27.485.431.648.809.161.377.376.863.97.863h.162c.868-.097.83-.84.812-.996l-.003-.029c-.216-.647-1.51-.917-2.373-1.025z"></path></svg></g><path fill="#8b50b2" fill-rule="nonzero" d="M5.02 1.88L5.02 8.77Q5.25 8.85 5.57 8.89L5.57 8.89Q5.84 8.95 6.23 8.99Q6.63 9.02 7.16 9.02L7.16 9.02Q8.37 9.02 9.13 8.72Q9.89 8.43 10.33 7.93Q10.77 7.44 10.93 6.81Q11.10 6.18 11.10 5.50L11.10 5.50Q11.10 4.75 10.97 4.07Q10.84 3.40 10.41 2.88Q9.98 2.37 9.16 2.06Q8.33 1.76 6.94 1.76L6.94 1.76Q6.50 1.76 6.01 1.78Q5.51 1.80 5.02 1.88L5.02 1.88ZM5.02 10.42L5.02 13.30Q5.02 14.05 5.07 14.63Q5.12 15.20 5.20 15.63Q5.27 16.05 5.34 16.34Q5.41 16.63 5.45 16.80L5.45 16.80Q5.27 16.90 5.06 16.97Q4.84 17.05 4.60 17.10Q4.36 17.16 4.13 17.18Q3.89 17.20 3.68 17.20L3.68 17.20Q3.38 17.20 3.11 17.14Q2.85 17.09 2.66 16.95Q2.47 16.82 2.37 16.59Q2.26 16.37 2.26 16.03L2.26 16.03L2.26 1.99L0 2.13L0 1.10Q0.22 1.02 0.77 0.87Q1.31 0.73 2.21 0.58Q3.12 0.43 4.40 0.32Q5.68 0.21 7.39 0.21L7.39 0.21Q8.73 0.21 9.91 0.44Q11.09 0.67 11.98 1.26Q12.87 1.85 13.38 2.88Q13.90 3.90 13.90 5.50L13.90 5.50Q13.90 6.68 13.50 7.62Q13.10 8.55 12.35 9.21Q11.60 9.86 10.52 10.20Q9.45 10.54 8.10 10.54L8.10 10.54Q7.96 10.54 7.65 10.54Q7.34 10.54 6.93 10.52Q6.52 10.51 6.02 10.49Q5.53 10.46 5.02 10.42L5.02 10.42ZM27.19 16.61L25.43 12.53L18.28 12.53Q18.11 13.15 18.01 13.78Q17.92 14.40 17.92 15.02L17.92 15.02Q17.92 15.46 17.96 15.87Q18.01 16.28 18.12 16.65L18.12 16.65L16.29 17.16Q16.01 17.23 15.76 17.23L15.76 17.23Q15.05 17.23 15.05 16.54L15.05 16.54Q15.05 16.48 15.06 16.44Q15.07 16.41 15.07 16.35L15.07 16.35Q15.18 15.47 15.51 14.31Q15.84 13.16 16.32 11.87Q16.80 10.58 17.38 9.23Q17.95 7.89 18.54 6.62Q19.13 5.34 19.68 4.22Q20.23 3.09 20.65 2.25Q21.08 1.41 21.34 0.92Q21.60 0.43 21.60 0.43L21.60 0.43L22.79 0.43Q23.09 0.43 23.30 0.47Q23.51 0.52 23.67 0.62Q23.82 0.73 23.95 0.91Q24.07 1.10 24.19 1.39L24.19 1.39L29.59 15.12L31.65 14.31L32.04 15.14Q31.75 15.41 31.30 15.78Q30.86 16.15 30.33 16.48Q29.81 16.82 29.26 17.05Q28.70 17.29 28.20 17.29L28.20 17.29Q27.87 17.29 27.61 17.13Q27.35 16.98 27.19 16.61L27.19 16.61ZM22.01 3.12L21.88 3.12Q21.36 4.31 20.88 5.40Q20.39 6.48 19.96 7.45Q19.54 8.43 19.20 9.30Q18.87 10.17 18.67 10.92L18.67 10.92L24.83 10.92L22.01 3.12ZM34.82 16.08L34.82 1.68L32.55 1.68L32.55 0.75Q32.73 0.66 33.08 0.56Q33.43 0.47 33.90 0.39Q34.36 0.30 34.91 0.26Q35.46 0.21 36.04 0.21L36.04 0.21Q36.50 0.21 36.80 0.23Q37.10 0.25 37.27 0.31Q37.44 0.38 37.51 0.49Q37.57 0.61 37.57 0.82L37.57 0.82L37.57 15.64L39.79 15.64L39.79 16.65Q39.57 16.76 39.21 16.86Q38.85 16.96 38.40 17.03Q37.96 17.11 37.46 17.16Q36.96 17.20 36.49 17.20L36.49 17.20Q36.13 17.20 35.82 17.16Q35.52 17.12 35.30 17.00Q35.07 16.88 34.95 16.66Q34.82 16.44 34.82 16.08L34.82 16.08ZM45.80 0.57L55.00 13.15Q54.94 8.16 54.73 5.02Q54.52 1.88 54.25 0.67L54.25 0.67Q54.26 0.67 54.32 0.65Q54.38 0.63 55.17 0.42Q55.97 0.21 56.24 0.21L56.24 0.21Q56.46 0.21 56.58 0.33Q56.71 0.46 56.77 0.73Q56.84 1.01 56.85 1.45Q56.86 1.90 56.86 2.54L56.86 2.54Q56.86 3.46 56.83 4.64Q56.80 5.82 56.75 7.14Q56.71 8.45 56.64 9.83Q56.58 11.21 56.51 12.54Q56.44 13.86 56.36 15.06Q56.29 16.25 56.21 17.20L56.21 17.20L55.14 17.20Q54.77 17.20 54.61 17.10Q54.45 17.00 54.29 16.80L54.29 16.80L45.49 4.65Q45.70 7.28 45.79 9.38Q45.87 11.47 45.87 12.87L45.87 12.87Q45.87 14.21 45.81 15.06Q45.75 15.91 45.69 16.42L45.69 16.42Q45.61 17.00 45.52 17.31L45.52 17.31L44.07 17.04Q43.62 16.95 43.38 16.70Q43.14 16.45 43.14 15.98L43.14 15.98Q43.14 15.86 43.15 15.70Q43.17 15.55 43.21 15.39L43.21 15.39Q43.32 14.84 43.42 14.15Q43.52 13.46 43.59 12.48Q43.66 11.50 43.70 10.12Q43.73 8.74 43.73 6.82L43.73 6.82Q43.73 5.31 43.71 4.08Q43.69 2.85 43.69 1.68L43.69 1.68L41.43 1.68L41.43 0.75Q41.59 0.67 41.92 0.57Q42.26 0.48 42.71 0.40Q43.16 0.32 43.69 0.26Q44.23 0.21 44.79 0.21L44.79 0.21Q45.15 0.21 45.39 0.29Q45.63 0.36 45.80 0.57L45.80 0.57ZM65.73 16.03L65.73 2.09Q64.63 2.09 63.65 2.17Q62.67 2.25 61.87 2.36Q61.07 2.46 60.47 2.56Q59.88 2.66 59.57 2.71L59.57 2.71Q59.57 2.70 59.54 2.55Q59.51 2.41 59.46 2.19Q59.41 1.97 59.38 1.72Q59.34 1.46 59.34 1.28L59.34 1.28Q59.34 0.89 59.69 0.71Q60.04 0.53 60.63 0.46Q61.23 0.40 62.03 0.42Q62.82 0.43 63.74 0.43L63.74 0.43L67.17 0.43Q67.71 0.43 68.50 0.43Q69.28 0.43 70.25 0.40Q71.21 0.36 72.32 0.28Q73.43 0.20 74.59 0.05L74.59 0.05L74.59 0.05Q74.59 0.06 74.63 0.17Q74.66 0.28 74.70 0.46Q74.73 0.64 74.77 0.87Q74.80 1.10 74.80 1.35L74.80 1.35Q74.80 1.64 74.60 1.80Q74.39 1.97 74.05 2.04Q73.71 2.12 73.27 2.14Q72.83 2.16 72.35 2.16L72.35 2.16Q71.02 2.16 70.09 2.13Q69.16 2.11 68.50 2.09L68.50 2.09L68.50 13.30Q68.50 14.05 68.54 14.63Q68.58 15.20 68.64 15.63Q68.70 16.05 68.75 16.34Q68.81 16.63 68.85 16.80L68.85 16.80Q68.67 16.90 68.46 16.97Q68.25 17.05 68.02 17.10Q67.79 17.16 67.57 17.18Q67.35 17.20 67.15 17.20L67.15 17.20Q66.84 17.20 66.58 17.14Q66.32 17.09 66.13 16.95Q65.94 16.82 65.84 16.59Q65.73 16.37 65.73 16.03L65.73 16.03ZM78.86 16.99L78.86 16.99Q78.30 16.95 78.12 16.72Q77.94 16.49 77.94 15.98L77.94 15.98L77.94 1.85L75.70 1.85L75.70 0.91Q76.05 0.80 76.82 0.67Q77.59 0.55 78.62 0.45Q79.65 0.34 80.88 0.28Q82.11 0.21 83.39 0.21L83.39 0.21Q83.94 0.21 84.60 0.22Q85.27 0.23 85.93 0.28Q86.59 0.32 87.21 0.39Q87.83 0.46 88.31 0.59Q88.79 0.71 89.08 0.91Q89.37 1.10 89.37 1.37L89.37 1.37Q89.37 1.49 89.22 1.79Q89.07 2.10 88.89 2.43Q88.70 2.77 88.52 3.05Q88.35 3.34 88.29 3.41L88.29 3.41Q88.29 3.40 87.98 3.19Q87.67 2.98 87.04 2.72Q86.41 2.47 85.48 2.26Q84.54 2.05 83.30 2.04L83.30 2.04L80.70 2.02L80.70 7.56L86.89 7.56L86.89 8.13Q86.89 8.75 86.63 8.98Q86.37 9.21 85.79 9.21L85.79 9.21L80.70 9.21L80.70 15.34L82.82 15.34Q84.39 15.34 85.97 15.13Q87.55 14.92 89.07 14.43L89.07 14.43Q89.07 14.44 89.11 14.55Q89.14 14.66 89.19 14.85Q89.24 15.04 89.28 15.28Q89.32 15.52 89.32 15.75L89.32 15.75Q89.32 16.30 89.04 16.58Q88.76 16.86 88.14 16.99Q87.52 17.11 86.50 17.12Q85.49 17.13 84.04 17.13L84.04 17.13Q83.24 17.13 82.44 17.12Q81.63 17.11 80.94 17.09Q80.24 17.07 79.69 17.04Q79.15 17.02 78.86 16.99ZM96.35 1.88L96.35 8.77Q96.59 8.85 96.90 8.89L96.90 8.89Q97.17 8.95 97.57 8.99Q97.97 9.02 98.50 9.02L98.50 9.02Q99.70 9.02 100.46 8.72Q101.23 8.43 101.67 7.93Q102.11 7.44 102.27 6.81Q102.43 6.18 102.43 5.50L102.43 5.50Q102.43 4.75 102.30 4.07Q102.18 3.40 101.75 2.88Q101.32 2.37 100.49 2.06Q99.67 1.76 98.27 1.76L98.27 1.76Q97.84 1.76 97.34 1.78Q96.84 1.80 96.35 1.88L96.35 1.88ZM102.12 10.10L105.50 15.14L107.40 13.90L107.98 14.68Q107.71 15.06 107.31 15.50Q106.91 15.94 106.43 16.31Q105.95 16.69 105.43 16.95Q104.91 17.20 104.40 17.20L104.40 17.20Q104.06 17.20 103.72 17.03Q103.37 16.86 103.08 16.39L103.08 16.39L99.43 10.54Q99.29 10.54 98.98 10.54Q98.67 10.54 98.26 10.52Q97.85 10.51 97.36 10.49Q96.87 10.46 96.35 10.42L96.35 10.42L96.35 13.30Q96.35 14.05 96.40 14.63Q96.46 15.20 96.53 15.63Q96.61 16.05 96.68 16.34Q96.75 16.63 96.79 16.80L96.79 16.80Q96.61 16.90 96.39 16.97Q96.18 17.05 95.94 17.10Q95.70 17.16 95.46 17.18Q95.23 17.20 95.02 17.20L95.02 17.20Q94.71 17.20 94.45 17.14Q94.18 17.09 94.00 16.95Q93.81 16.82 93.70 16.59Q93.60 16.37 93.60 16.03L93.60 16.03L93.60 1.99L91.34 2.13L91.34 1.10Q91.49 1.05 91.71 0.97Q91.93 0.88 92.30 0.78Q92.66 0.68 93.19 0.58Q93.73 0.48 94.49 0.40Q95.26 0.32 96.30 0.26Q97.35 0.21 98.73 0.21L98.73 0.21Q100.07 0.21 101.24 0.44Q102.42 0.67 103.31 1.26Q104.20 1.85 104.72 2.88Q105.23 3.90 105.23 5.50L105.23 5.50Q105.23 7.22 104.44 8.39Q103.64 9.56 102.12 10.10L102.12 10.10ZM112.04 16.99L112.04 16.99Q111.49 16.95 111.31 16.72Q111.13 16.49 111.13 15.98L111.13 15.98L111.13 1.85L108.89 1.85L108.89 0.91Q109.24 0.80 110.01 0.67Q110.78 0.55 111.81 0.45Q112.84 0.34 114.07 0.28Q115.30 0.21 116.58 0.21L116.58 0.21Q117.13 0.21 117.79 0.22Q118.45 0.23 119.12 0.28Q119.78 0.32 120.40 0.39Q121.02 0.46 121.50 0.59Q121.98 0.71 122.27 0.91Q122.55 1.10 122.55 1.37L122.55 1.37Q122.55 1.49 122.41 1.79Q122.26 2.10 122.07 2.43Q121.89 2.77 121.71 3.05Q121.54 3.34 121.48 3.41L121.48 3.41Q121.48 3.40 121.17 3.19Q120.86 2.98 120.23 2.72Q119.60 2.47 118.66 2.26Q117.73 2.05 116.48 2.04L116.48 2.04L113.88 2.02L113.88 7.56L120.08 7.56L120.08 8.13Q120.08 8.75 119.82 8.98Q119.55 9.21 118.98 9.21L118.98 9.21L113.88 9.21L113.88 15.34L116.00 15.34Q117.57 15.34 119.16 15.13Q120.74 14.92 122.26 14.43L122.26 14.43Q122.26 14.44 122.30 14.55Q122.33 14.66 122.38 14.85Q122.43 15.04 122.47 15.28Q122.51 15.52 122.51 15.75L122.51 15.75Q122.51 16.30 122.23 16.58Q121.95 16.86 121.32 16.99Q120.70 17.11 119.69 17.12Q118.68 17.13 117.22 17.13L117.22 17.13Q116.43 17.13 115.62 17.12Q114.82 17.11 114.12 17.09Q113.43 17.07 112.88 17.04Q112.34 17.02 112.04 16.99ZM131.25 6.98L131.25 6.98Q131.95 7.28 132.68 7.60Q133.41 7.92 134.08 8.29Q134.75 8.66 135.35 9.09Q135.94 9.53 136.38 10.05Q136.82 10.58 137.07 11.21Q137.32 11.85 137.32 12.62L137.32 12.62Q137.32 13.77 136.86 14.67Q136.41 15.56 135.63 16.18Q134.86 16.79 133.83 17.12Q132.80 17.45 131.66 17.45L131.66 17.45Q130.14 17.45 128.61 17.06Q127.08 16.68 125.73 15.77L125.73 15.77Q125.47 15.61 125.23 15.34Q124.98 15.07 124.98 14.77L124.98 14.77Q124.98 14.52 125.16 14.33L125.16 14.33L126.35 12.91Q126.91 13.36 127.59 13.89Q128.27 14.41 128.99 14.87Q129.71 15.33 130.43 15.63Q131.14 15.94 131.78 15.94L131.78 15.94Q132.30 15.94 132.81 15.76Q133.31 15.59 133.71 15.26Q134.10 14.94 134.34 14.48Q134.58 14.02 134.58 13.44L134.58 13.44Q134.58 12.70 134.19 12.09Q133.80 11.48 133.17 10.97Q132.53 10.46 131.71 10.04Q130.90 9.62 130.04 9.27L130.04 9.27Q128.63 8.67 127.75 8.07Q126.87 7.46 126.38 6.86Q125.89 6.26 125.72 5.66Q125.55 5.06 125.55 4.49L125.55 4.49Q125.55 3.62 125.85 2.95Q126.14 2.29 126.64 1.79Q127.14 1.29 127.80 0.95Q128.47 0.61 129.22 0.40Q129.97 0.19 130.76 0.09Q131.55 0 132.30 0L132.30 0Q132.63 0 133.08 0.03Q133.52 0.06 134.00 0.12Q134.48 0.18 134.95 0.28Q135.42 0.38 135.79 0.52Q136.16 0.67 136.39 0.87Q136.62 1.07 136.62 1.32L136.62 1.32Q136.62 1.52 136.48 1.78L136.48 1.78L135.54 3.39Q135.02 3.09 134.47 2.77Q133.92 2.44 133.32 2.17Q132.73 1.91 132.09 1.73Q131.45 1.56 130.75 1.56L130.75 1.56Q130.25 1.56 129.80 1.71Q129.34 1.86 129 2.17Q128.66 2.48 128.46 2.95Q128.25 3.41 128.25 4.03L128.25 4.03Q128.25 4.56 128.50 4.99Q128.75 5.43 129.17 5.79Q129.59 6.15 130.13 6.45Q130.66 6.74 131.25 6.98ZM145.24 16.03L145.24 2.09Q144.14 2.09 143.16 2.17Q142.18 2.25 141.38 2.36Q140.58 2.46 139.99 2.56Q139.39 2.66 139.08 2.71L139.08 2.71Q139.08 2.70 139.05 2.55Q139.02 2.41 138.97 2.19Q138.93 1.97 138.89 1.72Q138.86 1.46 138.86 1.28L138.86 1.28Q138.86 0.89 139.20 0.71Q139.55 0.53 140.14 0.46Q140.74 0.40 141.54 0.42Q142.34 0.43 143.25 0.43L143.25 0.43L146.68 0.43Q147.22 0.43 148.01 0.43Q148.79 0.43 149.76 0.40Q150.73 0.36 151.83 0.28Q152.94 0.20 154.10 0.05L154.10 0.05L154.10 0.05Q154.10 0.06 154.14 0.17Q154.17 0.28 154.21 0.46Q154.24 0.64 154.28 0.87Q154.31 1.10 154.31 1.35L154.31 1.35Q154.31 1.64 154.11 1.80Q153.90 1.97 153.56 2.04Q153.22 2.12 152.78 2.14Q152.34 2.16 151.86 2.16L151.86 2.16Q150.53 2.16 149.60 2.13Q148.68 2.11 148.01 2.09L148.01 2.09L148.01 13.30Q148.01 14.05 148.05 14.63Q148.09 15.20 148.15 15.63Q148.21 16.05 148.27 16.34Q148.32 16.63 148.36 16.80L148.36 16.80Q148.18 16.90 147.97 16.97Q147.76 17.05 147.53 17.10Q147.30 17.16 147.08 17.18Q146.86 17.20 146.66 17.20L146.66 17.20Q146.36 17.20 146.09 17.14Q145.83 17.09 145.64 16.95Q145.45 16.82 145.35 16.59Q145.24 16.37 145.24 16.03L145.24 16.03Z" transform="translate(0, 52)"></path></svg>