<?xml version="1.0" standalone="no"?>
<svg xmlns="http://www.w3.org/2000/svg" viewBox="0 0 126 70" width="126" height="70"><g fill="#ff4c4f" color="#ff4c4f" transform="translate(40.712 0) scale(0.9166667) "><svg width="48.0" height="48.0" x="0.0" y="0.0" viewBox="0 0 48 48"><path fill="currentColor" fill-rule="evenodd" d="M21.088 35.003c-.108 0-.27 0-.432-.054-1.294-.27-1.294-1.403-1.348-2.212-.054-.862-.108-1.186-.54-1.887-.215-.324.054-.647.378-.647.054 0 .108 0 .216.054 1.402.7 3.344 1.887 3.29 3.182 0 .054-.216 1.564-1.564 1.564m-2.643-14.994c-.054.162-.162.27-.378.378a1.787 1.787 0 0 1-1.294 0c-.593-.27-1.133-.701-1.564-1.079-.701-.593-1.348-1.132-2.157-.97-.54.053-.971.377-1.349.97-.161.27-.27.594-.161.917.215.755 1.024 1.187 2.319 1.888 2.21 1.186 4.045 2.265 4.045 3.883v.431c0 .108-.054.162-.054.27 0 .054-.054.108-.054.162 0 .054-.054.108-.054.162-.054.107-.108.161-.216.27l-.162.161c-.431.324-1.024.485-1.564.485-.755 0-1.726-.323-1.887-1.294-.27-1.402-2.535-3.074-4.53-3.236-.972-.108-1.834.162-2.428.755l-.215.27c-.054.054-.108.162-.162.216-.054.107-.108.161-.162.27 0 .053-.054.053-.054.107-.054.054-.054.108-.108.216-.054 0-.054.054-.054.108-.054.054-.054.162-.054.215-.27 1.187 1.24 2.104 3.236 3.344 3.29 1.996 5.879 3.83 4.908 6.095-.216.485-.647.97-1.186 1.294a3.536 3.536 0 0 1-1.78.485c-1.24 0-2.265-.755-2.859-2.103-.593-1.348-1.294-2.05-2.103-2.05-.593 0-1.133.324-1.51.971-.162.378-.324.81-.324 1.295-1.833-3.236-2.912-7.011-2.912-10.949C1.618 11.596 11.649 1.564 24 1.564c1.672 0 3.344.162 4.962.54.593.162.809.54.917.863.161.539 0 1.186-.432 1.564-.377.377-.97.431-1.672.215-1.456-.431-2.912-.215-3.775.648-.593.593-.809 1.402-.54 2.157.216.647.918 1.726 3.29 2.157 1.834.324 3.183.216 4.854.108a54.109 54.109 0 0 1 3.29-.108c3.128 0 4.854 1.564 5.394 2.859.377.917.27 1.78-.324 2.373-1.186 1.186-4.207-.216-5.609-1.025-.162-.108-.27-.162-.431-.27-.378-.215-.863-.108-1.08.27-.215.378-.107.863.217 1.079.054.054.215.161.431.27 1.834 1.186 2.859 2.804 2.859 4.476 0 1.402-.755 2.642-2.05 3.451-1.025.594-1.941.648-2.643.054-.7-.593-.97-1.672-.593-2.696.378-1.133.216-2.212-.485-3.02-1.133-1.295-3.506-1.78-6.04-1.295-.162.054-.324.054-.432.108-.917.27-2.697.97-4.045 2.157-.485-1.618-2.157-2.642-3.506-3.397-.809-.486-1.887-1.133-1.887-1.51 0-.486.593-1.241 1.24-1.403.593-.162 1.133.216 1.618 1.025.755 1.348 2.157 2.265 3.398 2.157 1.025-.054 1.887-.647 2.373-1.726.377-.809.377-1.833.054-2.696-.27-.701-.917-1.618-2.427-2.212a.797.797 0 0 0-1.025.432.797.797 0 0 0 .432 1.025c.809.323 1.294.755 1.51 1.294.215.54.108 1.079 0 1.402-.216.54-.54.81-.971.81-.647.053-1.51-.54-1.942-1.349-1.186-2.103-2.804-1.942-3.397-1.78-1.349.324-2.481 1.672-2.481 2.966 0 1.295 1.294 2.05 2.642 2.859 1.996 1.186 3.236 2.05 2.75 3.613M23.947 0c1.834 0 3.614.216 5.34.594 1.078.215 1.833.97 2.103 1.995.27 1.079-.054 2.32-.863 3.128-.486.432-1.564 1.133-3.29.594-1.079-.324-1.834-.054-2.157.27-.108.107-.216.323-.162.539.108.377.701.862 2.05 1.078 1.671.27 2.912.216 4.476.108.97-.054 2.05-.108 3.397-.108 3.938 0 6.149 2.05 6.904 3.83.647 1.51.377 3.074-.647 4.098-1.025 1.025-2.481 1.079-3.884.755.54.917.81 1.888.81 2.913 0 1.995-1.025 3.775-2.859 4.854-1.564.97-3.236.97-4.476-.054-1.24-1.025-1.672-2.859-1.079-4.477.216-.593.108-1.078-.216-1.456-.72-.824-2.424-1.107-4.22-.802l-.256.047h-.054c-.054.054-.162.054-.216.108-1.186.54-2.48 3.236-2.373 6.256 0 1.672.432 5.77 4.369 7.227 1.78.701 3.505 1.025 5.123 1.025 2.75 0 5.07-.971 7.12-2.427 1.132-.755 2.21-1.726 3.235-2.697 2.178-2.333 3.708-4.966 4.014-6.891l.031-.228v-.054c0-.054.054-.108.054-.162 0 0 .03-.03.046-.068l.008-.04.108-.107.023-.023.085-.085s.054-.054.108-.054c.036 0 .072-.024.108-.04l.054-.014h.323c.054 0 .108.054.162.054 0 0 .03.03.068.045l.04.009.216.215s.053.054.053.108c0 .036.024.072.04.108l.014.054v.054c.216 1.348.324 2.157.324 3.667 0 12.868-10.202 23.41-23.07 23.881l-.39.012h-1.834c-1.618-.054-3.236-.27-4.746-.702-.122 0-.243-.03-.364-.068l-.122-.04h-.054c-.054 0-.108-.053-.162-.053C7.281 44.063 0 34.84 0 23.946 0 10.733 10.787-.054 23.946 0zm16.611 18.23c.378 0 .701.108 1.079.323 1.618 1.079 2.373 2.265 2.157 3.506 0 .108-.054.162-.054.216-.323.917-1.132 1.833-2.373 1.833-.27 0-.593-.054-.863-.161a2.387 2.387 0 0 1-1.51-1.618 3.42 3.42 0 0 1-.073-1.096l.02-.145v-.216c-.055 0-.055 0-.055-.054-.27-.539-.215-1.186.108-1.725.378-.54.917-.863 1.564-.863zm0 1.672c-.161 0-.27.161-.215.323.215.378.215.54.16 1.025-.053.431-.106 1.025.54 1.24a.687.687 0 0 0 .324.054c.594 0 .81-.7.81-.647.107-.701-.864-1.456-1.51-1.941 0-.054-.055-.054-.109-.054zM35.542 2.319c.754.108 3.073.378 3.667 2.104 0 .054.054.162.054.215.054.216.161 1.133-.432 1.942-.377.54-1.025.863-1.726.97h-.323c-.7 0-1.348-.269-1.834-.808-.323-.324-.485-.701-.593-.97v-.055c0-.054-.054-.108-.054-.108l-.054-.054c-.593-.431-.862-1.24-.647-1.995.216-.755.917-1.24 1.726-1.24zm-.162 1.564c-.216 0-.324.27-.216.378.378.27.485.431.648.809.161.377.376.863.97.863h.162c.868-.097.83-.84.812-.996l-.003-.029c-.216-.647-1.51-.917-2.373-1.025z"></path></svg></g><path fill="#ff4c4c" fill-rule="nonzero" d="M5.90 10.39L5.90 10.39Q5.26 10.39 4.92 10.37L4.92 10.37Q3.89 14.88 3.77 16.63L3.77 16.63Q2.74 17.14 0.62 17.14L0.62 17.14Q0.17 17.14 0 17.11L0 17.11Q0.17 15.70 1.44 10.00Q2.71 4.30 2.71 2.81L2.71 2.81Q2.71 2.52 2.39 2.05Q2.06 1.58 1.73 1.27L1.73 1.27L1.42 0.96L1.49 0.60Q5.52 0 8.02 0L8.02 0Q12.96 0 12.96 4.03L12.96 4.03Q12.96 6.72 11.18 8.56Q9.41 10.39 5.90 10.39ZM5.28 8.78L5.52 8.78Q7.37 8.78 8.32 7.39Q9.26 6.00 9.26 3.67L9.26 3.67Q9.26 2.71 8.90 2.10Q8.54 1.49 7.85 1.49L7.85 1.49Q7.39 1.49 6.72 1.66L6.72 1.66Q6.34 4.18 5.28 8.78L5.28 8.78ZM12.77 16.73L12.77 16.73Q12.60 17.26 12.01 17.26Q11.42 17.26 10.68 16.61L10.68 16.61Q11.40 14.50 13.73 9.80Q16.06 5.11 16.75 2.78L16.75 2.78Q16.85 2.40 16.85 2.26L16.85 2.26Q16.85 1.90 16.32 1.15L16.32 1.15L16.13 0.89L16.18 0.58Q18.22 0 20.69 0L20.69 0L22.15 0.10Q22.42 0.46 22.56 1.20L22.56 1.20Q22.94 3.02 22.94 10.58L22.94 10.58Q22.94 13.51 23.45 14.71L23.45 14.71Q23.64 15.17 23.83 15.17Q24.02 15.17 25.01 14.69L25.01 14.69L25.32 14.54L25.80 15.41Q24.89 16.30 23.77 16.81Q22.66 17.33 21.72 17.33L21.72 17.33Q19.30 17.33 19.30 13.56L19.30 13.56L19.30 11.66Q18.67 11.52 17.40 11.52Q16.13 11.52 14.62 11.76L14.62 11.76Q13.42 14.54 12.77 16.73ZM15.38 10.03L19.34 10.03L19.37 7.25Q19.37 3.60 19.06 2.30L19.06 2.30Q18.86 2.30 18.77 2.35L18.77 2.35Q18.10 4.20 17.51 5.48Q16.92 6.77 16.24 8.22Q15.55 9.67 15.38 10.03L15.38 10.03ZM30.17 14.59L30.17 14.59Q30.17 15.12 30.43 15.12L30.43 15.12Q30.58 15.12 31.82 14.50L31.82 14.50L32.28 15.38Q30.12 17.33 28.46 17.33L28.46 17.33Q27.43 17.33 26.89 16.63Q26.35 15.94 26.35 14.90Q26.35 13.87 27.52 9.25Q28.68 4.63 28.80 2.90L28.80 2.90Q28.80 2.52 28.55 1.98Q28.30 1.44 28.03 1.10L28.03 1.10L27.79 0.77L27.86 0.41Q29.23 0 32.38 0L32.38 0Q32.66 0.55 32.66 1.60Q32.66 2.64 31.42 7.63Q30.17 12.62 30.17 14.59ZM34.46 17.14L34.46 17.14L34.01 17.14Q34.10 16.06 35.28 10.79Q36.46 5.52 36.74 2.90L36.74 2.90Q36.74 2.52 36.49 1.98Q36.24 1.44 35.98 1.10L35.98 1.10L35.74 0.77L35.81 0.41Q37.15 0 40.44 0L40.44 0Q40.75 0.58 40.75 1.13Q40.75 1.68 40.66 2.50L40.66 2.50Q43.66 0 45.55 0L45.55 0Q46.80 0 47.57 0.82Q48.34 1.63 48.34 3.10Q48.34 4.56 47.32 8.68Q46.30 12.79 46.30 14.42L46.30 14.42Q46.30 15.12 46.54 15.12L46.54 15.12Q46.75 15.12 47.74 14.64L47.74 14.64L48.05 14.50L48.53 15.38Q47.52 16.25 46.44 16.79Q45.36 17.33 44.48 17.33Q43.61 17.33 43.06 16.69Q42.50 16.06 42.50 14.96Q42.50 13.87 43.50 9.53Q44.50 5.18 44.50 3.98Q44.50 2.78 43.56 2.78L43.56 2.78Q42.14 2.78 40.34 4.20L40.34 4.20Q40.08 5.47 39.36 8.45L39.36 8.45Q37.78 15 37.78 16.66L37.78 16.66Q36.84 17.14 34.46 17.14ZM52.08 0L52.08 0L60.10 0.26L62.35 0.22Q62.42 0.72 62.42 1.27Q62.42 1.82 62.23 2.06Q62.04 2.30 61.54 2.30L61.54 2.30Q61.49 2.30 58.15 1.99L58.15 1.99Q58.06 3.07 57.43 5.69Q56.81 8.30 56.23 11.28Q55.66 14.26 55.63 16.63L55.63 16.63Q54.70 17.11 51.79 17.11L51.79 17.11L51.62 17.11Q51.62 15.86 52.99 9.67Q54.36 3.48 54.36 2.14L54.36 2.14Q54.36 2.04 54.31 1.80L54.31 1.80L53.35 1.80Q51.38 1.80 50.33 2.40L50.33 2.40Q49.78 1.68 49.66 0.29L49.66 0.29Q50.47 0 52.08 0ZM66.77 17.33L66.77 17.33Q65.09 17.33 63.55 16.37L63.55 16.37Q62.78 15.89 62.29 15.02Q61.80 14.16 61.80 13.03L61.80 13.03Q61.80 10.90 63.22 9.55Q64.63 8.21 66.62 7.99L66.62 7.99Q65.28 7.63 64.48 6.74Q63.67 5.86 63.67 4.49L63.67 4.49Q63.67 2.42 65.29 1.21Q66.91 0 69 0Q71.09 0 72.48 0.89Q73.87 1.78 73.87 3.29L73.87 3.29Q73.87 3.82 73.69 4.32Q73.51 4.82 73.32 5.04L73.32 5.04L73.15 5.28Q72.38 5.28 71.46 5.02Q70.54 4.75 70.10 4.34L70.10 4.34L70.39 1.87Q70.03 1.51 69.18 1.51Q68.33 1.51 67.84 2.39Q67.34 3.26 67.34 4.39Q67.34 5.52 67.61 6.10Q67.87 6.67 68.35 6.98L68.35 6.98Q69.10 7.46 70.10 7.66L70.10 7.66L69.91 8.98Q68.18 8.98 66.91 10.00Q65.64 11.02 65.64 12.70L65.64 12.70Q65.64 13.75 66.32 14.44Q67.01 15.12 68.09 15.12L68.09 15.12Q70.06 15.12 72.12 13.13L72.12 13.13L73.08 14.02Q70.30 17.33 66.77 17.33ZM74.83 17.16L74.83 17.16Q74.38 17.16 74.21 17.14L74.21 17.14Q74.38 15.74 75.68 10.07Q76.99 4.39 76.99 2.88L76.99 2.88Q76.99 2.59 76.66 2.12Q76.32 1.66 75.98 1.34L75.98 1.34L75.67 1.01L75.74 0.62Q79.03 0 82.70 0L82.70 0Q87.12 0 87.12 3.48L87.12 3.48Q87.12 5.18 86.27 6.59Q85.42 7.99 83.62 8.78L83.62 8.78Q84.96 13.27 85.92 14.59L85.92 14.59Q86.35 15.14 86.59 15.14L86.59 15.14Q87.02 15.14 87.94 14.71L87.94 14.71L88.22 14.57L88.78 15.46Q87.89 16.27 86.72 16.80Q85.56 17.33 84.54 17.33Q83.52 17.33 82.86 16.45Q82.20 15.58 81.66 13.87Q81.12 12.17 80.57 9.50L80.57 9.50Q79.80 9.55 79.39 9.55L79.39 9.55Q78.17 14.81 78.05 16.66L78.05 16.66Q77.02 17.16 74.83 17.16ZM79.75 7.92L80.33 7.92Q81.77 7.92 82.60 6.64Q83.42 5.35 83.42 3.58L83.42 3.58Q83.42 2.64 83.09 2.06Q82.75 1.49 82.08 1.49L82.08 1.49Q81.79 1.49 81.40 1.57Q81 1.66 81 1.68L81 1.68Q80.62 4.15 79.75 7.92L79.75 7.92ZM94.32 17.33L94.32 17.33Q92.64 17.33 91.10 16.37L91.10 16.37Q90.34 15.89 89.84 15.02Q89.35 14.16 89.35 13.03L89.35 13.03Q89.35 10.90 90.77 9.55Q92.18 8.21 94.18 7.99L94.18 7.99Q92.83 7.63 92.03 6.74Q91.22 5.86 91.22 4.49L91.22 4.49Q91.22 2.42 92.84 1.21Q94.46 0 96.55 0Q98.64 0 100.03 0.89Q101.42 1.78 101.42 3.29L101.42 3.29Q101.42 3.82 101.24 4.32Q101.06 4.82 100.87 5.04L100.87 5.04L100.70 5.28Q99.94 5.28 99.01 5.02Q98.09 4.75 97.66 4.34L97.66 4.34L97.94 1.87Q97.58 1.51 96.73 1.51Q95.88 1.51 95.39 2.39Q94.90 3.26 94.90 4.39Q94.90 5.52 95.16 6.10Q95.42 6.67 95.90 6.98L95.90 6.98Q96.65 7.46 97.66 7.66L97.66 7.66L97.46 8.98Q95.74 8.98 94.46 10.00Q93.19 11.02 93.19 12.70L93.19 12.70Q93.19 13.75 93.88 14.44Q94.56 15.12 95.64 15.12L95.64 15.12Q97.61 15.12 99.67 13.13L99.67 13.13L100.63 14.02Q97.85 17.33 94.32 17.33ZM111.07 12.34L111.07 12.34Q111.07 14.64 109.32 15.98Q107.57 17.33 105.07 17.33L105.07 17.33Q103.39 17.33 102.30 16.48Q101.21 15.62 101.09 15.02L101.09 15.02Q101.35 14.23 102.22 13.25Q103.08 12.26 103.78 12.05L103.78 12.05Q105 12.84 106.06 15.58L106.06 15.58Q107.62 15.53 107.62 13.87L107.62 13.87Q107.62 12.96 106.88 11.63Q106.15 10.30 105.29 9.13Q104.42 7.97 103.69 6.52Q102.96 5.06 102.96 3.94L102.96 3.94Q102.96 2.11 104.44 1.06Q105.91 0 107.76 0Q109.61 0 110.63 0.79Q111.65 1.58 111.65 2.59Q111.65 3.60 110.88 4.66Q110.11 5.71 109.34 6.34L109.34 6.34L108.58 6.96Q108.86 7.34 109.27 7.94Q109.68 8.54 110.38 9.98Q111.07 11.42 111.07 12.34ZM109.24 4.46Q109.56 4.15 109.82 3.71Q110.09 3.26 110.09 2.77Q110.09 2.28 109.51 1.94Q108.94 1.61 108.13 1.61Q107.33 1.61 106.79 1.98Q106.25 2.35 106.25 2.87Q106.25 3.38 106.60 4.07Q106.94 4.75 107.28 5.21L107.28 5.21L107.64 5.66Q107.88 5.54 108.40 5.16Q108.91 4.78 109.24 4.46ZM115.08 0L115.08 0L123.10 0.26L125.35 0.22Q125.42 0.72 125.42 1.27Q125.42 1.82 125.23 2.06Q125.04 2.30 124.54 2.30L124.54 2.30Q124.49 2.30 121.15 1.99L121.15 1.99Q121.06 3.07 120.43 5.69Q119.81 8.30 119.23 11.28Q118.66 14.26 118.63 16.63L118.63 16.63Q117.70 17.11 114.79 17.11L114.79 17.11L114.62 17.11Q114.62 15.86 115.99 9.67Q117.36 3.48 117.36 2.14L117.36 2.14Q117.36 2.04 117.31 1.80L117.31 1.80L116.35 1.80Q114.38 1.80 113.33 2.40L113.33 2.40Q112.78 1.68 112.66 0.29L112.66 0.29Q113.47 0 115.08 0Z" transform="translate(0, 52)"></path></svg>