<?xml version="1.0" standalone="no"?>
<svg xmlns="http://www.w3.org/2000/svg" viewBox="0 0 173.356 29" width="173.356" height="29"><g fill="#ffb94c" color="#ffb94c" transform="translate(0, 0) scale(0.6041667)"><svg width="48.0" height="48.0" x="0.0" y="0.0" viewBox="0 0 48 48"><path fill="currentColor" fill-rule="evenodd" d="M21.088 35.003c-.108 0-.27 0-.432-.054-1.294-.27-1.294-1.403-1.348-2.212-.054-.862-.108-1.186-.54-1.887-.215-.324.054-.647.378-.647.054 0 .108 0 .216.054 1.402.7 3.344 1.887 3.29 3.182 0 .054-.216 1.564-1.564 1.564m-2.643-14.994c-.054.162-.162.27-.378.378a1.787 1.787 0 0 1-1.294 0c-.593-.27-1.133-.701-1.564-1.079-.701-.593-1.348-1.132-2.157-.97-.54.053-.971.377-1.349.97-.161.27-.27.594-.161.917.215.755 1.024 1.187 2.319 1.888 2.21 1.186 4.045 2.265 4.045 3.883v.431c0 .108-.054.162-.054.27 0 .054-.054.108-.054.162 0 .054-.054.108-.054.162-.054.107-.108.161-.216.27l-.162.161c-.431.324-1.024.485-1.564.485-.755 0-1.726-.323-1.887-1.294-.27-1.402-2.535-3.074-4.53-3.236-.972-.108-1.834.162-2.428.755l-.215.27c-.054.054-.108.162-.162.216-.054.107-.108.161-.162.27 0 .053-.054.053-.054.107-.054.054-.054.108-.108.216-.054 0-.054.054-.054.108-.054.054-.054.162-.054.215-.27 1.187 1.24 2.104 3.236 3.344 3.29 1.996 5.879 3.83 4.908 6.095-.216.485-.647.97-1.186 1.294a3.536 3.536 0 0 1-1.78.485c-1.24 0-2.265-.755-2.859-2.103-.593-1.348-1.294-2.05-2.103-2.05-.593 0-1.133.324-1.51.971-.162.378-.324.81-.324 1.295-1.833-3.236-2.912-7.011-2.912-10.949C1.618 11.596 11.649 1.564 24 1.564c1.672 0 3.344.162 4.962.54.593.162.809.54.917.863.161.539 0 1.186-.432 1.564-.377.377-.97.431-1.672.215-1.456-.431-2.912-.215-3.775.648-.593.593-.809 1.402-.54 2.157.216.647.918 1.726 3.29 2.157 1.834.324 3.183.216 4.854.108a54.109 54.109 0 0 1 3.29-.108c3.128 0 4.854 1.564 5.394 2.859.377.917.27 1.78-.324 2.373-1.186 1.186-4.207-.216-5.609-1.025-.162-.108-.27-.162-.431-.27-.378-.215-.863-.108-1.08.27-.215.378-.107.863.217 1.079.054.054.215.161.431.27 1.834 1.186 2.859 2.804 2.859 4.476 0 1.402-.755 2.642-2.05 3.451-1.025.594-1.941.648-2.643.054-.7-.593-.97-1.672-.593-2.696.378-1.133.216-2.212-.485-3.02-1.133-1.295-3.506-1.78-6.04-1.295-.162.054-.324.054-.432.108-.917.27-2.697.97-4.045 2.157-.485-1.618-2.157-2.642-3.506-3.397-.809-.486-1.887-1.133-1.887-1.51 0-.486.593-1.241 1.24-1.403.593-.162 1.133.216 1.618 1.025.755 1.348 2.157 2.265 3.398 2.157 1.025-.054 1.887-.647 2.373-1.726.377-.809.377-1.833.054-2.696-.27-.701-.917-1.618-2.427-2.212a.797.797 0 0 0-1.025.432.797.797 0 0 0 .432 1.025c.809.323 1.294.755 1.51 1.294.215.54.108 1.079 0 1.402-.216.54-.54.81-.971.81-.647.053-1.51-.54-1.942-1.349-1.186-2.103-2.804-1.942-3.397-1.78-1.349.324-2.481 1.672-2.481 2.966 0 1.295 1.294 2.05 2.642 2.859 1.996 1.186 3.236 2.05 2.75 3.613M23.947 0c1.834 0 3.614.216 5.34.594 1.078.215 1.833.97 2.103 1.995.27 1.079-.054 2.32-.863 3.128-.486.432-1.564 1.133-3.29.594-1.079-.324-1.834-.054-2.157.27-.108.107-.216.323-.162.539.108.377.701.862 2.05 1.078 1.671.27 2.912.216 4.476.108.97-.054 2.05-.108 3.397-.108 3.938 0 6.149 2.05 6.904 3.83.647 1.51.377 3.074-.647 4.098-1.025 1.025-2.481 1.079-3.884.755.54.917.81 1.888.81 2.913 0 1.995-1.025 3.775-2.859 4.854-1.564.97-3.236.97-4.476-.054-1.24-1.025-1.672-2.859-1.079-4.477.216-.593.108-1.078-.216-1.456-.72-.824-2.424-1.107-4.22-.802l-.256.047h-.054c-.054.054-.162.054-.216.108-1.186.54-2.48 3.236-2.373 6.256 0 1.672.432 5.77 4.369 7.227 1.78.701 3.505 1.025 5.123 1.025 2.75 0 5.07-.971 7.12-2.427 1.132-.755 2.21-1.726 3.235-2.697 2.178-2.333 3.708-4.966 4.014-6.891l.031-.228v-.054c0-.054.054-.108.054-.162 0 0 .03-.03.046-.068l.008-.04.108-.107.023-.023.085-.085s.054-.054.108-.054c.036 0 .072-.024.108-.04l.054-.014h.323c.054 0 .108.054.162.054 0 0 .03.03.068.045l.04.009.216.215s.053.054.053.108c0 .036.024.072.04.108l.014.054v.054c.216 1.348.324 2.157.324 3.667 0 12.868-10.202 23.41-23.07 23.881l-.39.012h-1.834c-1.618-.054-3.236-.27-4.746-.702-.122 0-.243-.03-.364-.068l-.122-.04h-.054c-.054 0-.108-.053-.162-.053C7.281 44.063 0 34.84 0 23.946 0 10.733 10.787-.054 23.946 0zm16.611 18.23c.378 0 .701.108 1.079.323 1.618 1.079 2.373 2.265 2.157 3.506 0 .108-.054.162-.054.216-.323.917-1.132 1.833-2.373 1.833-.27 0-.593-.054-.863-.161a2.387 2.387 0 0 1-1.51-1.618 3.42 3.42 0 0 1-.073-1.096l.02-.145v-.216c-.055 0-.055 0-.055-.054-.27-.539-.215-1.186.108-1.725.378-.54.917-.863 1.564-.863zm0 1.672c-.161 0-.27.161-.215.323.215.378.215.54.16 1.025-.053.431-.106 1.025.54 1.24a.687.687 0 0 0 .324.054c.594 0 .81-.7.81-.647.107-.701-.864-1.456-1.51-1.941 0-.054-.055-.054-.109-.054zM35.542 2.319c.754.108 3.073.378 3.667 2.104 0 .054.054.162.054.215.054.216.161 1.133-.432 1.942-.377.54-1.025.863-1.726.97h-.323c-.7 0-1.348-.269-1.834-.808-.323-.324-.485-.701-.593-.97v-.055c0-.054-.054-.108-.054-.108l-.054-.054c-.593-.431-.862-1.24-.647-1.995.216-.755.917-1.24 1.726-1.24zm-.162 1.564c-.216 0-.324.27-.216.378.378.27.485.431.648.809.161.377.376.863.97.863h.162c.868-.097.83-.84.812-.996l-.003-.029c-.216-.647-1.51-.917-2.373-1.025z"></path></svg></g><line x1="41" y1="2%" x2="41" y2="98%" stroke="#ffb94c" stroke-linecap="round"></line><path fill="#ffb94c" fill-rule="nonzero" d="M4.54 14.38L4.54 14.38Q4.54 13.99 4.51 13.37Q4.48 12.75 4.43 12Q4.38 11.25 4.32 10.41Q4.27 9.56 4.20 8.73Q4.13 7.90 4.06 7.12Q4.00 6.34 3.94 5.71L3.94 5.71Q3.84 4.80 3.68 4.38Q3.52 3.96 3.14 3.96L3.14 3.96Q2.79 3.96 2.68 4.16Q2.57 4.36 2.55 4.65Q2.53 4.95 2.54 5.29Q2.54 5.64 2.43 5.93Q2.32 6.22 2.02 6.42Q1.71 6.62 1.08 6.62L1.08 6.62Q0.63 6.62 0.32 6.25Q0 5.88 0 5.18L0 5.18Q0 4.20 0.58 3.39Q1.16 2.59 2.21 2.02Q3.27 1.45 4.76 1.14Q6.25 0.82 8.06 0.82L8.06 0.82Q9.36 0.82 10.46 1.11Q11.57 1.39 12.37 1.90Q13.17 2.41 13.63 3.11Q14.09 3.81 14.09 4.63L14.09 4.63Q14.09 5.55 13.55 6.40Q13.01 7.24 12.06 7.95Q11.12 8.65 9.84 9.17Q8.57 9.69 7.10 9.98L7.10 9.98Q6.69 10.05 6.69 10.49L6.69 10.49Q6.69 10.78 6.73 11.22Q6.77 11.66 6.81 12.14Q6.86 12.62 6.90 13.09Q6.94 13.56 6.94 13.92L6.94 13.92Q6.94 14.58 6.63 14.86Q6.33 15.14 5.73 15.14L5.73 15.14Q5.17 15.14 4.85 14.95Q4.54 14.75 4.54 14.38ZM11.66 4.97L11.66 4.97Q11.66 4.57 11.32 4.21Q10.98 3.84 10.41 3.56Q9.83 3.28 9.08 3.12Q8.32 2.95 7.49 2.95L7.49 2.95Q7.08 2.95 6.80 2.98Q6.53 3.01 6.36 3.08Q6.20 3.15 6.13 3.26Q6.07 3.38 6.07 3.55L6.07 3.55Q6.07 3.67 6.11 4.10Q6.14 4.52 6.20 5.09Q6.26 5.65 6.32 6.26Q6.39 6.88 6.46 7.37L6.46 7.37Q6.49 7.73 6.56 7.85Q6.62 7.97 6.76 7.97L6.76 7.97Q7.16 7.97 7.68 7.83Q8.19 7.70 8.74 7.47Q9.28 7.24 9.80 6.94Q10.32 6.64 10.74 6.31Q11.16 5.98 11.41 5.63Q11.66 5.29 11.66 4.97ZM14.75 10.70L14.60 10.70Q14.40 10.70 14.30 10.50Q14.20 10.30 14.20 9.94L14.20 9.94Q14.20 9.88 14.20 9.80Q14.20 9.73 14.23 9.50L14.23 9.50Q14.26 8.66 15.06 8.52L15.06 8.52L15.33 8.50Q15.60 8.46 15.75 8.33Q15.90 8.19 15.97 7.95L15.97 7.95Q16.17 7.28 16.37 6.60Q16.57 5.92 16.79 5.25L16.79 5.25Q16.91 4.88 17.03 4.45Q17.16 4.02 17.30 3.60Q17.45 3.18 17.64 2.77Q17.84 2.36 18.08 2.02L18.08 2.02Q18.19 1.88 18.38 1.72Q18.56 1.57 18.80 1.45Q19.04 1.32 19.32 1.25Q19.59 1.17 19.86 1.17L19.86 1.17Q20.21 1.17 20.55 1.39L20.55 1.39Q21.01 1.71 21.46 2.16Q21.90 2.60 22.45 3.29Q23.00 3.98 23.73 4.96Q24.46 5.94 25.48 7.32L25.48 7.32Q25.63 7.50 25.80 7.59Q25.97 7.68 26.20 7.68L26.20 7.68L26.87 7.68Q27.28 7.68 27.51 7.87Q27.74 8.06 27.74 8.40L27.74 8.40Q27.74 8.47 27.73 8.57Q27.73 8.66 27.69 8.75L27.69 8.75L27.47 9.41Q27.45 9.50 27.43 9.57Q27.42 9.64 27.42 9.71L27.42 9.71Q27.42 9.96 27.59 10.22L27.59 10.22L28.84 11.93Q29.05 12.25 29.05 12.53L29.05 12.53Q29.05 12.95 28.57 13.27L28.57 13.27L28.13 13.58Q27.96 13.69 27.81 13.75Q27.67 13.80 27.52 13.80L27.52 13.80Q27.30 13.80 27.12 13.68Q26.94 13.56 26.78 13.35L26.78 13.35Q26.21 12.55 25.65 11.78Q25.08 11.00 24.49 10.24L24.49 10.24Q24.22 9.87 23.78 9.87L23.78 9.87Q22.35 9.93 20.95 10.03Q19.55 10.13 18.14 10.27L18.14 10.27Q17.64 10.31 17.51 10.80L17.51 10.80L16.98 12.74Q16.77 13.51 16.04 13.51L16.04 13.51L15.86 13.51L15.49 13.46Q15.09 13.43 14.89 13.22Q14.68 13.01 14.68 12.67L14.68 12.67Q14.68 12.60 14.70 12.52Q14.71 12.43 14.73 12.34L14.73 12.34Q14.79 12.11 14.85 11.86Q14.92 11.61 14.99 11.38L14.99 11.38Q15.01 11.29 15.02 11.21Q15.04 11.13 15.04 11.06L15.04 11.06Q15.04 10.70 14.75 10.70L14.75 10.70ZM20.18 4.51L20.18 4.51Q20.06 4.41 19.97 4.34Q19.88 4.27 19.77 4.27L19.77 4.27Q19.48 4.27 19.36 4.68L19.36 4.68Q19.13 5.37 18.91 6.04Q18.69 6.71 18.47 7.42L18.47 7.42Q18.45 7.48 18.45 7.52Q18.45 7.57 18.45 7.63L18.45 7.63Q18.45 8.06 18.90 8.06L18.90 8.06L19.02 8.06Q19.72 7.97 20.43 7.92Q21.13 7.86 21.83 7.83L21.83 7.83Q22.07 7.80 22.20 7.71Q22.34 7.61 22.34 7.44L22.34 7.44Q22.34 7.29 22.20 7.08L22.20 7.08Q21.70 6.42 21.21 5.78Q20.71 5.14 20.18 4.51ZM29.21 2.09L29.21 2.09Q29.21 1.88 29.32 1.69Q29.43 1.51 29.61 1.38Q29.80 1.24 30.05 1.16Q30.30 1.08 30.59 1.08L30.59 1.08Q31.14 1.08 31.39 1.25Q31.65 1.43 31.71 1.80L31.71 1.80Q31.91 3.36 32.04 4.75Q32.18 6.14 32.26 7.40Q32.34 8.66 32.38 9.81Q32.41 10.97 32.41 12.05L32.41 12.05Q32.41 12.63 32.00 12.93Q31.58 13.22 30.79 13.22L30.79 13.22Q30.42 13.22 30.22 13.05Q30.01 12.88 30.01 12.55L30.01 12.55Q30.01 10.54 29.89 8.77Q29.77 7.01 29.61 5.64Q29.46 4.27 29.34 3.35Q29.21 2.43 29.21 2.09ZM37.43 7.17L37.43 7.17Q37.43 7.66 37.48 8.19Q37.52 8.72 37.59 9.25Q37.65 9.77 37.70 10.31Q37.75 10.84 37.75 11.36L37.75 11.36Q37.75 11.93 37.35 12.29Q36.95 12.64 36.28 12.64L36.28 12.64Q35.95 12.64 35.67 12.45Q35.38 12.25 35.34 11.81L35.34 11.81Q35.29 11.26 35.23 10.58Q35.18 9.89 35.14 9.16Q35.10 8.43 35.06 7.68Q35.03 6.94 35.00 6.25Q34.98 5.57 34.97 4.99Q34.96 4.41 34.96 4.01L34.96 4.01Q34.96 3.66 35.00 3.34Q35.05 3.02 35.20 2.79Q35.36 2.55 35.62 2.41Q35.88 2.27 36.33 2.27L36.33 2.27Q36.67 2.27 37.09 2.51Q37.51 2.75 38.00 3.16Q38.48 3.57 39.04 4.11Q39.59 4.64 40.17 5.23Q40.76 5.81 41.37 6.42Q41.99 7.02 42.62 7.56L42.62 7.56Q42.90 7.80 43.26 8.13Q43.62 8.46 44.00 8.75Q44.38 9.05 44.76 9.25Q45.14 9.46 45.49 9.46L45.49 9.46Q45.82 9.46 45.92 9.17Q46.02 8.88 46.02 8.25L46.02 8.25Q46.02 7.78 45.94 7.09Q45.87 6.40 45.73 5.61Q45.59 4.83 45.38 4.04Q45.16 3.25 44.89 2.59L44.89 2.59Q44.84 2.45 44.78 2.31Q44.73 2.18 44.73 2.02L44.73 2.02Q44.73 1.75 44.91 1.54Q45.08 1.32 45.33 1.18Q45.57 1.04 45.84 0.97Q46.11 0.89 46.29 0.89L46.29 0.89Q46.68 0.89 46.98 1.31Q47.29 1.72 47.51 2.38Q47.74 3.05 47.89 3.87Q48.05 4.70 48.15 5.53Q48.25 6.36 48.29 7.12Q48.33 7.88 48.33 8.38L48.33 8.38Q48.33 9.33 48.25 10.05Q48.18 10.77 47.94 11.26Q47.70 11.75 47.24 12.01Q46.78 12.26 46.02 12.26L46.02 12.26Q45.41 12.26 44.74 12.01Q44.07 11.75 43.39 11.33Q42.70 10.90 42.01 10.35Q41.31 9.80 40.64 9.20Q39.97 8.60 39.35 8.00Q38.72 7.41 38.18 6.89L38.18 6.89Q37.96 6.67 37.77 6.67L37.77 6.67Q37.61 6.67 37.52 6.80Q37.43 6.94 37.43 7.17ZM52.48 3.29L52.48 3.29Q52.38 3.29 52.12 3.33Q51.86 3.38 51.50 3.43Q51.15 3.49 50.77 3.57Q50.38 3.64 50.04 3.70Q49.70 3.76 49.45 3.80Q49.20 3.84 49.11 3.84L49.11 3.84Q48.33 3.84 48.33 3.02L48.33 3.02Q48.33 2.80 48.37 2.58Q48.41 2.37 48.52 2.19Q48.62 2.00 48.80 1.88Q48.97 1.75 49.24 1.70L49.24 1.70Q50.61 1.49 51.97 1.25Q53.33 1.02 54.71 0.76L54.71 0.76Q55.02 0.70 55.27 0.65Q55.51 0.60 55.82 0.50L55.82 0.50Q56.14 0.41 56.53 0.32Q56.92 0.23 57.31 0.16Q57.70 0.09 58.07 0.05Q58.44 0 58.75 0L58.75 0Q59.12 0 59.31 0.24Q59.51 0.48 59.51 0.91L59.51 0.91Q59.51 1.14 59.47 1.34Q59.44 1.55 59.34 1.71Q59.25 1.88 59.09 1.98Q58.92 2.09 58.66 2.11L58.66 2.11Q58.00 2.20 57.23 2.34Q56.47 2.47 55.91 2.64L55.91 2.64Q55.68 2.71 55.56 2.87Q55.44 3.02 55.41 3.26L55.41 3.26Q55.37 3.48 55.37 3.71Q55.36 3.94 55.36 4.15L55.36 4.15Q55.36 4.64 55.40 5.13Q55.44 5.63 55.48 6.12L55.48 6.12Q55.58 7.80 55.80 9.46Q56.02 11.11 56.27 12.80L56.27 12.80Q56.30 12.86 56.30 12.91Q56.30 12.97 56.30 13.03L56.30 13.03Q56.30 13.68 55.57 13.95L55.57 13.95L55.04 14.11Q54.83 14.18 54.63 14.18L54.63 14.18Q54.33 14.18 54.14 13.99Q53.95 13.79 53.89 13.42L53.89 13.42Q53.57 11.40 53.32 9.40Q53.07 7.41 53.00 5.38L53.00 5.38Q52.98 5.05 52.97 4.66Q52.96 4.28 52.96 3.87L52.96 3.87Q52.96 3.29 52.48 3.29ZM60.56 10.15L60.56 10.15Q60.53 10.15 60.45 10.16Q60.38 10.17 60.29 10.18Q60.20 10.20 60.12 10.21Q60.04 10.22 59.99 10.22L59.99 10.22Q59.66 10.22 59.41 9.94Q59.17 9.67 59.17 9.21L59.17 9.21Q59.17 8.91 59.37 8.63Q59.57 8.34 59.99 8.16L59.99 8.16Q60.12 8.10 60.19 8.02Q60.27 7.95 60.27 7.80L60.27 7.80Q60.27 7.43 60.25 7.00Q60.23 6.57 60.20 6L60.20 6Q60.19 5.88 60.12 5.78Q60.06 5.67 59.98 5.54Q59.91 5.40 59.85 5.24Q59.79 5.07 59.79 4.83L59.79 4.83Q59.79 4.61 59.85 4.32Q59.92 4.03 60.12 3.78Q60.33 3.53 60.70 3.36Q61.07 3.19 61.66 3.19L61.66 3.19Q61.91 3.19 62.07 3.23Q62.24 3.28 62.36 3.35Q62.48 3.41 62.58 3.46Q62.68 3.50 62.79 3.50L62.79 3.50Q62.98 3.50 63.54 3.43Q64.10 3.36 64.89 3.23Q65.68 3.11 66.64 2.94Q67.59 2.78 68.58 2.58Q69.56 2.39 70.50 2.19Q71.44 1.99 72.20 1.80L72.20 1.80Q72.43 1.75 72.61 1.75L72.61 1.75Q72.86 1.75 73.00 1.86Q73.15 1.97 73.22 2.13Q73.29 2.30 73.31 2.50Q73.32 2.71 73.32 2.88L73.32 2.88Q73.32 3.19 73.12 3.45Q72.91 3.71 72.45 3.87L72.45 3.87Q71.29 4.21 70.11 4.46Q68.93 4.71 67.73 4.92Q66.54 5.12 65.33 5.29Q64.13 5.45 62.93 5.61L62.93 5.61Q62.77 5.64 62.68 5.74Q62.60 5.84 62.60 6L62.60 6L62.60 6.48Q62.60 6.68 62.61 6.89Q62.63 7.10 62.67 7.28Q62.71 7.45 62.78 7.56Q62.85 7.68 62.96 7.68L62.96 7.68Q63.25 7.68 63.84 7.56Q64.43 7.44 65.17 7.27Q65.92 7.10 66.73 6.90Q67.55 6.69 68.27 6.52Q69 6.35 69.55 6.23Q70.10 6.12 70.32 6.12L70.32 6.12Q70.65 6.12 70.82 6.36Q70.99 6.60 71.05 6.96L71.05 6.96Q71.05 7.02 71.06 7.07Q71.07 7.11 71.07 7.17L71.07 7.17Q71.07 7.51 70.87 7.80Q70.66 8.09 70.14 8.23L70.14 8.23Q70.00 8.27 69.57 8.37Q69.15 8.47 68.58 8.61Q68.00 8.74 67.34 8.89Q66.67 9.05 66.02 9.19Q65.38 9.34 64.82 9.47Q64.27 9.61 63.91 9.69L63.91 9.69Q63.60 9.77 63.53 9.82Q63.47 9.87 63.47 9.94L63.47 9.94Q63.49 10.20 63.73 10.42Q63.97 10.64 64.34 10.83Q64.71 11.02 65.17 11.17Q65.64 11.32 66.13 11.42Q66.63 11.52 67.11 11.58Q67.59 11.64 68.00 11.64L68.00 11.64Q68.18 11.64 68.51 11.64Q68.84 11.64 69.23 11.62Q69.62 11.60 70.04 11.57Q70.45 11.53 70.79 11.47Q71.12 11.40 71.34 11.30Q71.55 11.20 71.55 11.06L71.55 11.06Q71.55 10.93 71.47 10.79Q71.38 10.65 71.38 10.49L71.38 10.49Q71.38 10.25 71.51 10.03Q71.64 9.80 71.84 9.62Q72.05 9.43 72.31 9.32Q72.57 9.21 72.84 9.21L72.84 9.21Q73.18 9.21 73.46 9.35Q73.75 9.48 73.95 9.70Q74.16 9.91 74.27 10.20Q74.38 10.48 74.38 10.77L74.38 10.77Q74.38 11.54 73.81 12.11Q73.24 12.67 72.33 13.04Q71.41 13.41 70.27 13.59Q69.12 13.77 67.96 13.77L67.96 13.77Q66.60 13.77 65.47 13.59Q64.35 13.41 63.46 13.01Q62.57 12.61 61.92 11.97Q61.28 11.33 60.87 10.42L60.87 10.42Q60.73 10.15 60.56 10.15ZM77.94 4.15L77.94 4.15Q77.71 4.24 77.48 4.24L77.48 4.24Q76.92 4.24 76.71 3.57L76.71 3.57Q76.65 3.40 76.63 3.28Q76.62 3.16 76.62 3.07L76.62 3.07Q76.62 2.52 77.24 2.25L77.24 2.25Q78.47 1.76 79.75 1.45Q81.02 1.15 82.32 1.15L82.32 1.15Q82.93 1.15 83.53 1.28Q84.12 1.41 84.59 1.72Q85.05 2.04 85.35 2.57Q85.64 3.09 85.64 3.89L85.64 3.89Q85.64 4.45 85.41 4.97Q85.18 5.48 84.81 5.95Q84.43 6.42 83.95 6.84Q83.47 7.27 82.97 7.62Q82.46 7.97 81.97 8.26Q81.48 8.54 81.08 8.75L81.08 8.75Q80.74 8.95 80.74 9.16L80.74 9.16Q80.74 9.41 81.11 9.55L81.11 9.55Q82.36 10.00 83.67 10.38Q84.98 10.77 86.33 11.25L86.33 11.25Q86.96 11.48 86.96 11.98L86.96 11.98Q86.96 12.21 86.83 12.45Q86.70 12.69 86.53 12.89L86.53 12.89Q86.19 13.39 85.69 13.39L85.69 13.39Q85.51 13.39 85.25 13.32L85.25 13.32Q84.49 13.03 83.62 12.71Q82.75 12.40 81.84 12.09Q80.93 11.78 80.05 11.49Q79.17 11.20 78.42 10.97L78.42 10.97Q78.15 10.90 78.06 10.90L78.06 10.90Q77.96 10.90 77.91 10.94Q77.86 10.98 77.86 11.11L77.86 11.11Q77.86 11.14 77.87 11.20Q77.88 11.25 77.88 11.31L77.88 11.31Q77.92 11.48 77.97 11.77Q78.02 12.06 78.08 12.36Q78.13 12.67 78.16 12.94Q78.20 13.22 78.20 13.39L78.20 13.39Q78.20 14.05 77.48 14.31L77.48 14.31L76.96 14.47Q76.84 14.51 76.75 14.53Q76.65 14.54 76.55 14.54L76.55 14.54Q75.90 14.54 75.80 13.75L75.80 13.75Q75.52 11.61 75.08 9.54Q74.64 7.46 74.07 5.40L74.07 5.40Q74.04 5.29 74.03 5.20Q74.03 5.11 74.03 5.04L74.03 5.04Q74.03 4.42 74.70 4.20L74.70 4.20Q74.94 4.11 75.10 4.07Q75.26 4.02 75.36 3.99Q75.46 3.96 75.51 3.95Q75.56 3.94 75.61 3.94L75.61 3.94Q76.24 3.94 76.43 4.65L76.43 4.65Q76.68 5.57 76.89 6.42Q77.11 7.28 77.29 8.11L77.29 8.11Q77.38 8.52 77.63 8.52L77.63 8.52Q77.70 8.52 77.79 8.49Q77.88 8.46 78.01 8.40L78.01 8.40Q78.39 8.20 78.92 7.91Q79.45 7.62 80.03 7.26Q80.61 6.90 81.18 6.50Q81.75 6.11 82.20 5.71Q82.65 5.31 82.93 4.92Q83.21 4.54 83.21 4.20L83.21 4.20Q83.21 3.98 83.15 3.81Q83.09 3.63 82.91 3.50Q82.73 3.38 82.44 3.30Q82.14 3.23 81.68 3.23L81.68 3.23Q81.23 3.23 80.75 3.31Q80.26 3.39 79.78 3.52Q79.30 3.64 78.83 3.81Q78.36 3.97 77.94 4.15ZM88.09 10.15L88.09 10.15Q88.05 10.15 87.98 10.16Q87.90 10.17 87.81 10.18Q87.73 10.20 87.64 10.21Q87.56 10.22 87.52 10.22L87.52 10.22Q87.19 10.22 86.94 9.94Q86.70 9.67 86.70 9.21L86.70 9.21Q86.70 8.91 86.89 8.63Q87.09 8.34 87.52 8.16L87.52 8.16Q87.64 8.10 87.72 8.02Q87.80 7.95 87.80 7.80L87.80 7.80Q87.80 7.43 87.78 7.00Q87.76 6.57 87.73 6L87.73 6Q87.71 5.88 87.65 5.78Q87.59 5.67 87.51 5.54Q87.43 5.40 87.38 5.24Q87.32 5.07 87.32 4.83L87.32 4.83Q87.32 4.61 87.38 4.32Q87.45 4.03 87.65 3.78Q87.86 3.53 88.22 3.36Q88.59 3.19 89.19 3.19L89.19 3.19Q89.44 3.19 89.60 3.23Q89.77 3.28 89.89 3.35Q90.01 3.41 90.11 3.46Q90.21 3.50 90.32 3.50L90.32 3.50Q90.50 3.50 91.07 3.43Q91.63 3.36 92.42 3.23Q93.21 3.11 94.17 2.94Q95.12 2.78 96.11 2.58Q97.09 2.39 98.03 2.19Q98.96 1.99 99.73 1.80L99.73 1.80Q99.96 1.75 100.14 1.75L100.14 1.75Q100.38 1.75 100.53 1.86Q100.68 1.97 100.75 2.13Q100.82 2.30 100.83 2.50Q100.85 2.71 100.85 2.88L100.85 2.88Q100.85 3.19 100.65 3.45Q100.44 3.71 99.97 3.87L99.97 3.87Q98.81 4.21 97.63 4.46Q96.46 4.71 95.26 4.92Q94.07 5.12 92.86 5.29Q91.65 5.45 90.46 5.61L90.46 5.61Q90.29 5.64 90.21 5.74Q90.13 5.84 90.13 6L90.13 6L90.13 6.48Q90.13 6.68 90.14 6.89Q90.15 7.10 90.19 7.28Q90.23 7.45 90.30 7.56Q90.38 7.68 90.49 7.68L90.49 7.68Q90.77 7.68 91.37 7.56Q91.96 7.44 92.70 7.27Q93.45 7.10 94.26 6.90Q95.07 6.69 95.80 6.52Q96.53 6.35 97.08 6.23Q97.63 6.12 97.85 6.12L97.85 6.12Q98.18 6.12 98.35 6.36Q98.52 6.60 98.58 6.96L98.58 6.96Q98.58 7.02 98.59 7.07Q98.60 7.11 98.60 7.17L98.60 7.17Q98.60 7.51 98.40 7.80Q98.19 8.09 97.66 8.23L97.66 8.23Q97.52 8.27 97.10 8.37Q96.68 8.47 96.11 8.61Q95.53 8.74 94.86 8.89Q94.20 9.05 93.55 9.19Q92.91 9.34 92.35 9.47Q91.79 9.61 91.44 9.69L91.44 9.69Q91.13 9.77 91.06 9.82Q91.00 9.87 91.00 9.94L91.00 9.94Q91.02 10.20 91.26 10.42Q91.50 10.64 91.87 10.83Q92.24 11.02 92.70 11.17Q93.16 11.32 93.66 11.42Q94.16 11.52 94.64 11.58Q95.12 11.64 95.53 11.64L95.53 11.64Q95.71 11.64 96.04 11.64Q96.36 11.64 96.76 11.62Q97.15 11.60 97.56 11.57Q97.98 11.53 98.31 11.47Q98.65 11.40 98.87 11.30Q99.08 11.20 99.08 11.06L99.08 11.06Q99.08 10.93 98.99 10.79Q98.91 10.65 98.91 10.49L98.91 10.49Q98.91 10.25 99.04 10.03Q99.16 9.80 99.37 9.62Q99.57 9.43 99.84 9.32Q100.10 9.21 100.37 9.21L100.37 9.21Q100.71 9.21 100.99 9.35Q101.27 9.48 101.48 9.70Q101.68 9.91 101.79 10.20Q101.91 10.48 101.91 10.77L101.91 10.77Q101.91 11.54 101.34 12.11Q100.77 12.67 99.86 13.04Q98.94 13.41 97.79 13.59Q96.64 13.77 95.48 13.77L95.48 13.77Q94.13 13.77 93 13.59Q91.88 13.41 90.98 13.01Q90.09 12.61 89.45 11.97Q88.80 11.33 88.39 10.42L88.39 10.42Q88.25 10.15 88.09 10.15ZM104.48 8.23L104.48 8.23Q104.48 8.93 104.83 9.53Q105.18 10.14 105.74 10.59Q106.30 11.04 107.03 11.29Q107.75 11.54 108.52 11.54L108.52 11.54Q108.75 11.54 109.00 11.50Q109.24 11.46 109.44 11.36Q109.64 11.25 109.77 11.08Q109.90 10.91 109.90 10.65L109.90 10.65Q109.90 10.16 109.55 9.68Q109.21 9.20 108.64 8.72Q108.08 8.25 107.36 7.78Q106.63 7.30 105.88 6.83Q105.13 6.36 104.40 5.89Q103.68 5.41 103.11 4.94Q102.55 4.46 102.21 3.98Q101.86 3.49 101.86 3L101.86 3Q101.86 2.53 102.10 2.13Q102.34 1.72 102.74 1.39Q103.14 1.07 103.66 0.81Q104.19 0.55 104.77 0.38Q105.34 0.20 105.92 0.11Q106.50 0.02 107.03 0.02L107.03 0.02Q107.41 0.02 107.88 0.04Q108.34 0.06 108.74 0.15Q109.15 0.23 109.42 0.41Q109.69 0.59 109.69 0.91L109.69 0.91Q109.69 1.02 109.65 1.18Q109.62 1.34 109.45 1.70L109.45 1.70Q109.29 2.04 109.07 2.21Q108.86 2.38 108.52 2.38L108.52 2.38Q108.04 2.38 107.50 2.27Q106.97 2.16 106.43 2.16L106.43 2.16Q106.14 2.16 105.84 2.19Q105.54 2.21 105.29 2.29Q105.05 2.37 104.89 2.51Q104.74 2.66 104.74 2.88L104.74 2.88Q104.74 3.11 105.06 3.39Q105.39 3.67 105.92 4.01Q106.45 4.35 107.13 4.75Q107.81 5.16 108.52 5.62Q109.23 6.08 109.91 6.60Q110.59 7.13 111.12 7.71Q111.66 8.29 111.98 8.93Q112.30 9.57 112.30 10.27L112.30 10.27Q112.30 11.11 111.91 11.75Q111.53 12.40 110.92 12.83Q110.31 13.27 109.57 13.48Q108.83 13.70 108.13 13.70L108.13 13.70Q107.41 13.70 106.68 13.53Q105.95 13.36 105.27 13.05Q104.59 12.74 104.00 12.30Q103.41 11.86 102.97 11.31Q102.54 10.77 102.29 10.14Q102.04 9.50 102.04 8.81L102.04 8.81Q102.04 8.52 102.08 8.22Q102.12 7.92 102.22 7.69Q102.33 7.46 102.52 7.32Q102.70 7.17 103.00 7.17L103.00 7.17Q103.09 7.17 103.21 7.19Q103.32 7.21 103.62 7.30L103.62 7.30Q103.96 7.41 104.22 7.63Q104.48 7.86 104.48 8.23ZM115.32 3.29L115.32 3.29Q115.23 3.29 114.97 3.33Q114.70 3.38 114.35 3.43Q114 3.49 113.61 3.57Q113.23 3.64 112.89 3.70Q112.55 3.76 112.29 3.80Q112.04 3.84 111.96 3.84L111.96 3.84Q111.18 3.84 111.18 3.02L111.18 3.02Q111.18 2.80 111.22 2.58Q111.26 2.37 111.36 2.19Q111.47 2.00 111.64 1.88Q111.82 1.75 112.09 1.70L112.09 1.70Q113.46 1.49 114.82 1.25Q116.18 1.02 117.56 0.76L117.56 0.76Q117.87 0.70 118.11 0.65Q118.36 0.60 118.66 0.50L118.66 0.50Q118.99 0.41 119.38 0.32Q119.77 0.23 120.16 0.16Q120.55 0.09 120.92 0.05Q121.29 0 121.59 0L121.59 0Q121.97 0 122.16 0.24Q122.36 0.48 122.36 0.91L122.36 0.91Q122.36 1.14 122.32 1.34Q122.29 1.55 122.19 1.71Q122.10 1.88 121.93 1.98Q121.77 2.09 121.51 2.11L121.51 2.11Q120.84 2.20 120.08 2.34Q119.32 2.47 118.76 2.64L118.76 2.64Q118.52 2.71 118.41 2.87Q118.29 3.02 118.25 3.26L118.25 3.26Q118.22 3.48 118.21 3.71Q118.21 3.94 118.21 4.15L118.21 4.15Q118.21 4.64 118.25 5.13Q118.29 5.63 118.32 6.12L118.32 6.12Q118.43 7.80 118.65 9.46Q118.86 11.11 119.12 12.80L119.12 12.80Q119.14 12.86 119.14 12.91Q119.14 12.97 119.14 13.03L119.14 13.03Q119.14 13.68 118.42 13.95L118.42 13.95L117.89 14.11Q117.68 14.18 117.48 14.18L117.48 14.18Q117.18 14.18 116.99 13.99Q116.80 13.79 116.74 13.42L116.74 13.42Q116.41 11.40 116.17 9.40Q115.92 7.41 115.85 5.38L115.85 5.38Q115.83 5.05 115.82 4.66Q115.80 4.28 115.80 3.87L115.80 3.87Q115.80 3.29 115.32 3.29Z" transform="translate(51, 6.93)"></path></svg>